<?xml version="1.0" standalone="no"?><!DOCTYPE svg PUBLIC "-//W3C//DTD SVG 1.1//EN" "http://www.w3.org/Graphics/SVG/1.1/DTD/svg11.dtd"><svg class="icon" width="256px" height="256.00px" viewBox="0 0 1024 1024" version="1.1" xmlns="http://www.w3.org/2000/svg"><path d="M590.0288 617.2672c44.9024-44.9024 86.2208-155.6992 94.208-245.0432 1.792-19.6608-15.104-35.7888-34.7648-33.9456-96.9728 9.216-199.3728 48.0256-244.8896 93.5424-51.2 51.2-51.2 134.2464 0 185.4464s134.2464 51.2 185.4464 0z" fill="#F55C04" /><path d="M511.0784 920.1664c-225.0752 0-408.1664-183.0912-408.1664-408.1664s183.0912-408.1664 408.1664-408.1664 408.1664 183.0912 408.1664 408.1664-183.0912 408.1664-408.1664 408.1664z m0-754.8928C319.8976 165.2736 164.352 320.8192 164.352 512s155.5456 346.7264 346.7264 346.7264 346.7264-155.5456 346.7264-346.7264-155.5456-346.7264-346.7264-346.7264z" fill="#333333" /></svg>