<?xml version="1.0" standalone="no"?><!DOCTYPE svg PUBLIC "-//W3C//DTD SVG 1.1//EN" "http://www.w3.org/Graphics/SVG/1.1/DTD/svg11.dtd"><svg class="icon" width="256px" height="256.00px" viewBox="0 0 1024 1024" version="1.1" xmlns="http://www.w3.org/2000/svg"><path d="M776.9088 895.5392l-131.072-131.072a54.35904 54.35904 0 0 1 0-76.9024l52.224-52.224a54.35904 54.35904 0 0 1 76.9024 0l131.072 131.072a54.35904 54.35904 0 0 1 0 76.9024l-52.224 52.224a54.35904 54.35904 0 0 1-76.9024 0z" fill="#F55C04" /><path d="M514.9696 915.8656c-228.1984 0-413.8496-185.6512-413.8496-413.8496s185.6512-413.8496 413.8496-413.8496 413.8496 185.6512 413.8496 413.8496-185.6512 413.8496-413.8496 413.8496z m0-766.2592c-194.304 0-352.4096 158.1056-352.4096 352.4096s158.1056 352.4096 352.4096 352.4096 352.4096-158.1056 352.4096-352.4096-158.1056-352.4096-352.4096-352.4096z" fill="#333333" /><path d="M514.9696 757.5552c-140.9024 0-255.5392-114.6368-255.5392-255.5392 0-140.9024 114.6368-255.5392 255.5392-255.5392 140.9024 0 255.5392 114.6368 255.5392 255.5392 0 140.9024-114.6368 255.5392-255.5392 255.5392z m0-449.6384c-107.008 0-194.0992 87.0912-194.0992 194.0992 0 107.008 87.0912 194.0992 194.0992 194.0992 107.008 0 194.0992-87.0912 194.0992-194.0992 0-107.0592-87.0912-194.0992-194.0992-194.0992z" fill="#333333" /></svg>