<?xml version="1.0" standalone="no"?><!DOCTYPE svg PUBLIC "-//W3C//DTD SVG 1.1//EN" "http://www.w3.org/Graphics/SVG/1.1/DTD/svg11.dtd"><svg class="icon" width="256px" height="256.00px" viewBox="0 0 1024 1024" version="1.1" xmlns="http://www.w3.org/2000/svg"><path d="M664.7296 105.9328H358.2464c-138.2912 0-250.8288 112.5376-250.8288 250.8288v306.432c0 138.2912 112.5376 250.8288 250.8288 250.8288h306.432c138.2912 0 250.8288-112.5376 250.8288-250.8288V356.7616c0.0512-138.3424-112.4864-250.8288-250.7776-250.8288zM168.8576 663.1936V356.7616c0-104.448 84.9408-189.3888 189.3888-189.3888h306.432c104.448 0 189.3888 84.9408 189.3888 189.3888v91.904c-221.696 5.4272-401.3568 183.04-409.9584 403.9168H358.2464c-104.448 0.0512-189.3888-84.9408-189.3888-189.3888z m495.872 189.44H505.6c8.5504-187.0336 160.7168-337.1008 348.5184-342.4768v153.088c0 104.3968-84.992 189.3888-189.3888 189.3888z" fill="#333333" /><path d="M394.2912 408.4224m-106.0352 0a106.0352 106.0352 0 1 0 212.0704 0 106.0352 106.0352 0 1 0-212.0704 0Z" fill="#F55C04" /></svg>