<?xml version="1.0" standalone="no"?><!DOCTYPE svg PUBLIC "-//W3C//DTD SVG 1.1//EN" "http://www.w3.org/Graphics/SVG/1.1/DTD/svg11.dtd"><svg class="icon" width="256px" height="256.00px" viewBox="0 0 1024 1024" version="1.1" xmlns="http://www.w3.org/2000/svg"><path d="M582.5024 602.9824c-26.4704-17.664-33.5872-53.4528-15.9232-79.9232l210.0224-314.7264c17.664-26.4704 53.4528-33.5872 79.9232-15.9232 26.4704 17.664 33.5872 53.4528 15.9232 79.9232l-210.0224 314.7264c-17.664 26.4704-53.4528 33.5872-79.9232 15.9232z" fill="#F55C04" /><path d="M509.6448 923.7504c-225.9456 0-409.7536-183.808-409.7536-409.7536s183.808-409.7536 409.7536-409.7536 409.7536 183.808 409.7536 409.7536-183.808 409.7536-409.7536 409.7536z m0-758.0672c-192.0512 0-348.3136 156.2624-348.3136 348.3136 0 192.0512 156.2624 348.3136 348.3136 348.3136s348.3136-156.2624 348.3136-348.3136c0-192.0512-156.2112-348.3136-348.3136-348.3136z" fill="#333333" /><path d="M509.6448 682.8032c-93.0816 0-168.7552-75.7248-168.7552-168.8064s75.7248-168.7552 168.7552-168.7552c93.0816 0 168.8064 75.7248 168.8064 168.7552 0 93.0816-75.7248 168.8064-168.8064 168.8064z m0-276.1216c-59.1872 0-107.3152 48.1792-107.3152 107.3152 0 59.1872 48.1792 107.3664 107.3152 107.3664 59.1872 0 107.3664-48.1792 107.3664-107.3664 0-59.1872-48.1792-107.3152-107.3664-107.3152z" fill="#333333" /></svg>