<?xml version="1.0" standalone="no"?><!DOCTYPE svg PUBLIC "-//W3C//DTD SVG 1.1//EN" "http://www.w3.org/Graphics/SVG/1.1/DTD/svg11.dtd"><svg class="icon" width="256px" height="256.00px" viewBox="0 0 1024 1024" version="1.1" xmlns="http://www.w3.org/2000/svg"><path d="M661.2992 917.6064h-300.032c-144.9472 0-262.912-117.9648-262.912-262.912v-300.032c0-144.9472 117.9648-262.912 262.912-262.912h300.032c144.9472 0 262.912 117.9648 262.912 262.912v300.032c0 144.9984-117.9136 262.912-262.912 262.912z m-300.032-764.416c-111.104 0-201.472 90.368-201.472 201.472v300.032c0 111.104 90.368 201.472 201.472 201.472h300.032c111.104 0 201.472-90.368 201.472-201.472v-300.032c0-111.104-90.368-201.472-201.472-201.472h-300.032z" fill="#333333" /><path d="M511.2832 552.9088c-86.4256 0-156.7232-70.2976-156.7232-156.7232s70.2976-156.7232 156.7232-156.7232 156.7232 70.2976 156.7232 156.7232-70.2976 156.7232-156.7232 156.7232z m0-251.9552c-52.5312 0-95.2832 42.752-95.2832 95.2832S458.752 491.52 511.2832 491.52s95.2832-42.752 95.2832-95.2832-42.752-95.2832-95.2832-95.2832z" fill="#333333" /><path d="M683.1616 760.2176H339.4048c-20.3776 0-36.9152-16.5376-36.9152-36.9152v-51.2512c0-20.3776 16.5376-36.9152 36.9152-36.9152h343.7568c20.3776 0 36.9152 16.5376 36.9152 36.9152v51.2512c0.0512 20.3776-16.4864 36.9152-36.9152 36.9152z" fill="#F55C04" /></svg>